<svg xmlns="http://www.w3.org/2000/svg" viewBox="0 0 39.67 197.81" width="39.67" height="197.81">
  <path class="dadirri-svg" d="M13.46.83c1.47,3,3,6.09,2.84,9.4S13.78,17,10.48,17.12s-5.87-4.69-3.31-6.78a4.45,4.45,0,0,1,5.23.16A11.11,11.11,0,0,1,15.73,15c7.34,14.88,7.44,32.37,4.65,48.73S12.1,95.8,8.7,112s-4.62,33.51,1,49.12c1,2.73,2.25,5.48,4.46,7.37s5.59,2.66,8.07,1.14,3-5.69.63-7.31-6.1.42-7.07,3.26-.14,5.95.69,8.83c2.58,8.92,6,18.85,14.36,22.86"/>
  <path class="dadirri-svg" d="M21.5.5,25.75,16c1.14,4.14,2.28,8.55,1,12.66.59-5.71,6.8-10.14,12.39-8.85"/>
  <path class="dadirri-svg" d="M1.42,136.68c-2.25-12.21,0-24.81,3.21-36.79S12.22,76.18,14.37,64s1.94-25.32-3.55-36.46"/>
  <path class="dadirri-svg" d="M34.59,16.82A41.25,41.25,0,0,0,37,24.23"/>
  <path class="dadirri-svg" d="M22.69,159.12a7.44,7.44,0,0,1,3.85,9.66"/>

</svg>
