<svg xmlns="http://www.w3.org/2000/svg" viewBox="0 0 163.39 69.01" width="163.39" height="69.01">
  <path class="dadirri-svg" d="M64.81,50.85C64.45,45.6,58.2,42.4,53,43.36s-9.28,4.77-12.92,8.56-7.32,8-11.65,11.22S18.9,68.71,13.51,68.5,2.65,65.08.86,60c-1-3,.2-7.32,3.34-7.31"/>
  <path class="dadirri-svg" d="M81.7,34.51V8.77"/>
  <path class="dadirri-svg" d="M81.7,20.81c-1.23-3.95-8.6-6.35-12.42-4.77s-6.41,5.14-8.68,8.59S56,31.75,52.43,33.81s-8.89,1.77-11.07-1.74a6,6,0,0,1,8.46-8.13"/>
  <path class="dadirri-svg" d="M98.61,51.42A16.92,16.92,0,1,1,81.7,34.51,16.91,16.91,0,0,1,98.61,51.42Z"/>
  <path class="dadirri-svg" d="M85.63,4.43,81.7.5,77.77,4.43,81.7,8.36Z"/>
  <path class="dadirri-svg" d="M98.58,50.85c.36-5.25,6.61-8.45,11.78-7.49s9.29,4.77,12.92,8.56,7.33,8,11.65,11.22,9.56,5.57,14.95,5.36,10.87-3.42,12.65-8.51c1-3-.2-7.32-3.34-7.31"/>
  <path class="dadirri-svg" d="M81.7,20.81c1.22-3.95,8.59-6.35,12.41-4.77s6.41,5.14,8.68,8.59,4.58,7.12,8.17,9.18,8.9,1.77,11.08-1.74a6,6,0,0,0-8.47-8.13"/>
  <path class="dadirri-svg" d="M65.18,52.1H98"/>
  <path class="dadirri-svg" d="M66.3,45.82H97"/>
  <path class="dadirri-svg" d="M66.79,58.78H96.43"/>
  <path class="dadirri-svg" d="M69.77,39.86H93.53"/>
  <path class="dadirri-svg" d="M67.92,42.52H95.54"/>
  <path class="dadirri-svg" d="M65.26,48.8H97.63"/>
  <path class="dadirri-svg" d="M65.5,55.08H97.87"/>
  <path class="dadirri-svg" d="M72.51,37.36H91"/>
  <path class="dadirri-svg" d="M73.71,66H89.82"/>
  <path class="dadirri-svg" d="M68.32,61.76H94.65"/>
  <path class="dadirri-svg" d="M70.49,63.94H93"/>
</svg>
