<svg xmlns="http://www.w3.org/2000/svg" viewBox="0 0 53.63 407.49" width="53.63" height="407.49">
  <path class="dadirri-svg" d="M28.84,383.72V407"/>
  <path class="dadirri-svg" d="M28.84,346.87v24.82"/>
  <path class="dadirri-svg" d="M28.84,303.43v24.05"/>
  <path class="dadirri-svg" d="M29.26,250.32v18.62"/>
  <path class="dadirri-svg" d="M29.32,203.36v16.29"/>
  <path class="dadirri-svg" d="M29.61,138.2v-62"/>
  <path class="dadirri-svg" d="M24.18,132.77H35"/>
  <path class="dadirri-svg" d="M48.14,59.86c-7.8-7-18.76,5-18.51,9.45C27.25,61.94,16.84,57,10.22,61"/>
  <path class="dadirri-svg" d="M35.19,45.12a97.73,97.73,0,0,1-7.92-8.87c-2.58,3.94-5.33,6.55-7.91,10.49,3.27,2.63,5.48,5.26,8.75,7.88C30.42,51.23,32.84,48.8,35.19,45.12Z"/>
  <path class="dadirri-svg" d="M28.84,318.75,36.59,311"/>
  <path class="dadirri-svg" d="M28.84,318.75l-8.15-8.14"/>
  <path class="dadirri-svg" d="M22.73,204.72l13.18,13.19"/>
  <path class="dadirri-svg" d="M22.53,218.3l13.58-13.58"/>
  <path class="dadirri-svg" d="M22.63,399.62H35"/>
  <path class="dadirri-svg" d="M23.79,395.35H33"/>
  <path class="dadirri-svg" d="M36.21,110.67l11.24,11.24s.39-11.89.39-19L36.59,91.66c0,6.08-.38,12.93-.38,19"/>
  <path class="dadirri-svg" d="M11.77,82,24.18,94.38"/>
  <path class="dadirri-svg" d="M11.77,82V65.89H12l12.19,12.2V94"/>
  <path class="dadirri-svg" d="M19,36.57A6.9,6.9,0,0,0,15,30.24a10.53,10.53,0,0,0-7.79-.18c-1.44.49-2.89,1.22-4.4,1s-2.86-2-2-3.25"/>
  <path class="dadirri-svg" d="M34.61,36.57a6.9,6.9,0,0,1,4.07-6.33,10.53,10.53,0,0,1,7.79-.18c1.44.49,2.89,1.22,4.4,1s2.86-2,2-3.25"/>
  <path class="dadirri-svg" d="M26.46,19.94a7.52,7.52,0,0,1,.12,7.38"/>
  <path class="dadirri-svg" d="M21.42,14.92a4.42,4.42,0,0,0-7,1.87"/>
  <path class="dadirri-svg" d="M27.09,6.8a3.53,3.53,0,0,1-1.34-4.21,3.56,3.56,0,0,1,3.94-2"/>
  <path class="dadirri-svg" d="M34.39,13a7.57,7.57,0,0,1,4.85,5.4"/>
  <path class="dadirri-svg" d="M33.72,250.45V268s6.46-5.94,9.43-8.92Z"/>
  <path class="dadirri-svg" d="M32.7,325a2.38,2.38,0,0,1,2.46-2.36,5.71,5.71,0,0,1,3.45,1.54,11.85,11.85,0,0,0,3.15,2.18,3,3,0,0,0,3.49-.76"/>
  <path class="dadirri-svg" d="M24.36,325.15a3,3,0,0,0-2.16-3.43,4.3,4.3,0,0,0-3.29.94c-.95.68-1.76,1.56-2.71,2.23a4.25,4.25,0,0,1-3.3.9,2.88,2.88,0,0,1-2.14-3.06"/>
  <path class="dadirri-svg" d="M25.11,377.28a7.42,7.42,0,0,0-6.87-.9"/>
  <path class="dadirri-svg" d="M31.84,377.22a13.33,13.33,0,0,1,8.34-1.65"/>
  <path class="dadirri-svg" d="M28.72,331.28a3.82,3.82,0,0,1,.66,4.53c-.76,1.32-2.35,2.2-2.61,3.71a2.44,2.44,0,0,0,2,2.74"/>
  <path class="dadirri-svg" d="M29.39,234.39V217.84"/>
  <path class="dadirri-svg" d="M49.9,170.14a19.27,19.27,0,1,1-19.27-19.27A19.26,19.26,0,0,1,49.9,170.14Z"/>
  <path class="dadirri-svg" d="M11.58,170.53H49.07"/>
  <path class="dadirri-svg" d="M14.94,171v9.7"/>
  <path class="dadirri-svg" d="M20,171.56v13.58"/>
  <path class="dadirri-svg" d="M25.93,171.3v16.42"/>
  <path class="dadirri-svg" d="M32,171v17.72"/>
  <path class="dadirri-svg" d="M38.08,170.78v16"/>
  <path class="dadirri-svg" d="M44.54,170.53v12.41"/>
  <path class="dadirri-svg" d="M13.52,163.29H47.26"/>
  <path class="dadirri-svg" d="M12.22,166H48.81"/>
  <path class="dadirri-svg" d="M14.81,159H45.32"/>
  <path class="dadirri-svg" d="M18.69,155.66H42.61"/>
  <path class="dadirri-svg" d="M40.18,295.29H17.49V272.6H40.18Z"/>
  <path class="dadirri-svg" d="M26.12,234.39h8.15"/>
</svg>
