<svg xmlns="http://www.w3.org/2000/svg" viewBox="0 0 97.65 52.8" width="97.65" height="52.8">
   <path class="dadirri-svg" d="M97.15,37.42c-2.77-6.59-6.32-13-11.76-17.68s-13.07-7.18-19.9-5.11c-6.29,1.9-10.85,7.18-15.85,11.43a57.7,57.7,0,0,1-20,11c-5.74,1.81-12.39,2.59-17.44-.68C6.66,32.82,5.46,25,8.42,19.3"/>
   <path class="dadirri-svg" d="M16.68,9.79A15,15,0,0,0,8.42,19.3C6.57,15.82,4,11.8.5,10,2.75,9.7,3.74,7.87,5.16,6.09A20.54,20.54,0,0,0,8.26.5C9.59,4,13.19,8.44,16.68,9.79Z"/>
   <path class="dadirri-svg" d="M71.16,13.92V38.55"/>
   <path class="dadirri-svg" d="M71.16,38.61a13.65,13.65,0,0,0,6,5.74c-2,2.71-2.92,5.07-4.65,7.95-1.68-3.08-4.08-5-6.42-7.65,2.33-.71,4.55-3.71,5-6.1"/>
   <path class="dadirri-svg" d="M50,19.48A26.24,26.24,0,0,1,93.4,21.43"/>
</svg>
