<svg xmlns="http://www.w3.org/2000/svg" viewBox="0 0 186.36 145.87" width="183.36" height="145.87">
   <path class="dadirri-svg" d="M175.86,128.09a73.71,73.71,0,0,0-63.76-11.31c-15.36,4.54-28.76,14-43.53,20.17A108.76,108.76,0,0,1,17.75,145c-4.18-.34-8.49-1-12-3.27s-6-6.61-5-10.67"/>
   <path class="dadirri-svg" d="M172.58,73.86A16.91,16.91,0,1,1,155.67,57,16.92,16.92,0,0,1,172.58,73.86Z"/>
   <path class="dadirri-svg" d="M153.75,90.78c-2.37,6.92.09,14.47,4.29,20.47s12,12.44,17.82,16.84"/>
   <path class="dadirri-svg" d="M163.49,88.93V76"/>
   <path class="dadirri-svg" d="M150.32,58.12V73.83"/>
   <path class="dadirri-svg" d="M176.06,127.83C176.06,85.31,176,43,176,.5"/>
   <path class="dadirri-svg" d="M29.48,128.15a12.33,12.33,0,1,1-12.32-12.32A12.32,12.32,0,0,1,29.48,128.15Z"/>
   <path class="dadirri-svg" d="M5.32,128.07H29.16"/>
   <path class="dadirri-svg" d="M6.71,128.23c4.08,4.08,8.16,7.84,12.24,11.92"/>
   <path class="dadirri-svg" d="M11.92,128.39,22.23,138.7"/>
   <path class="dadirri-svg" d="M17.24,128.23l8.63,8.63"/>
   <path class="dadirri-svg" d="M22.24,128.09l5.8,5.79"/>
   <path class="dadirri-svg" d="M26.34,128.23l2.82,2.82"/>
   <path class="dadirri-svg" d="M5.21,131c3.11,3.11,6.62,6.08,9.74,9.2"/>
   <path class="dadirri-svg" d="M4.66,118.8a11.11,11.11,0,0,1,4-3.52"/>
   <path class="dadirri-svg" d="M16,113.12a16.87,16.87,0,0,1,6.16,1.15"/>
   <path class="dadirri-svg" d="M29.72,117.87A14.56,14.56,0,0,1,32,124.29"/>
   <path class="dadirri-svg" d="M85,121.34a57,57,0,0,1,9.62-4.43"/>
   <path class="dadirri-svg" d="M73.94,127.14l7-3.54"/>
   <path class="dadirri-svg" d="M99.61,114.28a34.85,34.85,0,0,1,8.51-2.32"/>
   <path class="dadirri-svg" d="M113.48,110.74a30.47,30.47,0,0,1,7.18-.75"/>
   <path class="dadirri-svg" d="M170.06,40.94a14.57,14.57,0,0,0,15.8,10"/>
   <path class="dadirri-svg" d="M170.56,103.16a10.37,10.37,0,0,0,10-6"/>
   <circle class="dadirri-svg" cx="70.92" cy="128.39" r="3.02"/>
   <path class="dadirri-svg" d="M171.46,15.79c3.13-3.16,6.07-6,9-9.33A22.52,22.52,0,0,1,176,.5a23.92,23.92,0,0,1-3.73,6,30.71,30.71,0,0,0,9.24,8.89"/>
   <path class="dadirri-svg" d="M175.92,27.28c-.13-1.12-1.68-2-2.56-1.27s-.75,2.1-.52,3.23"/>
   <path class="dadirri-svg" d="M175.92,27.28A2.12,2.12,0,0,1,178.26,26c.56,0,1.47,1.1,1.66,2.21"/>
   <path class="dadirri-svg" d="M173.41,21.22l5.31,0"/>
</svg>