<svg xmlns="http://www.w3.org/2000/svg" viewBox="0 0 74.56 285.91" width="74.56" height="285.91">

         <path d="M43.5,285.41c14.88-9.3,19.37-29.71,15.6-46.85s-14-32-23.19-47-17.78-31.31-17.64-48.86c.11-14.26,6-27.76,11.53-40.9s10.93-27,10-41.19S24.9,33.9,16.31,29.1C11.49,26.4,7,22.69,5.36,17.41S7.79.5,7.79.5c5.47,8.75,14.31,21,13.31,31"/>
         <path d="M38.1,78.53c6-1,12.79-4.45,16.3-9.39s5.3-15.76,5.3-15.76c-7.33.95-16.25,5.57-19.6,12.15"/>
         <path d="M20.85,125.53c-4-13-19.58-17-19.58-17a24.23,24.23,0,0,0,2.64,18.45A22.55,22.55,0,0,0,18.4,137.53"/>
         <path d="M53.51,222.1a23.28,23.28,0,0,1,19.26-16.24s2.88,12,0,17.25-9.33,8.74-15.29,8.87"/>
         <path d="M38.75,196.17c-13,.06-29.48-7.76-35.33-19.4L1.84,173.7a43.47,43.47,0,0,1,28.37,8.49"/>
         <path d="M39.31,269.72a2.69,2.69,0,0,0,2.62-3.57c-.53-1.88-3.81-2.7-5.06-.5C36.09,267,37.35,269.8,39.31,269.72Z"/>
         <path d="M42.1,29.53c3,2,7,.47,7.65-2.28a4.88,4.88,0,0,0-4.56-5.77C39.1,21.53,39.75,28,42.1,29.53Z"/>
         <path d="M28.79,148.76c-1.48,2.07.6,5.43,3.13,5.64a3.89,3.89,0,1,0-3.13-5.64Z"/>
         <path d="M36.1,150.53c6.92,0,15.22.47,22.14.16,1.81-.08,5-.44,6.91-2.15a8.47,8.47,0,0,0,2.77-6.87,3.82,3.82,0,0,0-1.38-2.92,1.87,1.87,0,0,0-2.78.7"/>
         <path d="M60.82,150.41c3.06-.26,3.72-.31,5.45,1a5.17,5.17,0,0,1,2,5.67A4.09,4.09,0,0,1,63,159.48"/>

</svg>
