<svg xmlns="http://www.w3.org/2000/svg" viewBox="0 0 286.36 119" width="286.36" height="119">
    <path d="M27.5,13.5a14,14,0,0,0-2.67-8.43A9.68,9.68,0,0,0,16.75.55c-3.22.11-6.35,2.6-6.69,5.8S16,12.26,16,12.26"/>
    <path d="M27.5,60.5c3.95-10,17.6-15.78,28-13C50,57,38.57,65.83,27.59,65.34"/>
    <path d="M27.2,97.5c-2-6-6.53-9-11.66-11.18S.5,89.5.5,89.5s17,16.66,27,18"/>
    <path d="M27.36,36.13C23.88,30.34,15,26.16,8.5,24.5,9.21,34.14,16.65,43,26,45.61"/>
    <path d="M272.5,62.5c-2-4-6.7-6.37-10.13-4.14s-3.12,8.15.36,10.22"/><path d="M284,66.75A6.71,6.71,0,0,0,276.4,56c-2.83,1.31-3.9,7.66-3.9,9.54,0,6.33-.32,21.81-.32,21.81-10,0-31.68.19-31.68.19v31c-69.91,0-143.09-1.23-213-1.23V13.63s.59-6.42,1.92-9.47A7.62,7.62,0,0,1,35.5.5c3.62-.09,7,2,7.71,4.08,1,2.92-2.93,8.52-5.71,6.92"/>
    <path d="M247.35,93.84a2.47,2.47,0,1,0,.74-.5Z"/>
    <path d="M199.54,117.51V97.46"/>
    <path d="M199.64,96.71a4.76,4.76,0,0,1,8.86-3,3.9,3.9,0,0,1,.27,3.45,2.84,2.84,0,0,1-2.88,1.69A2.24,2.24,0,0,1,204,96.28"/>
    <path d="M230.35,108.84a2.47,2.47,0,1,0,.74-.5Z"/>
</svg>