<svg xmlns="http://www.w3.org/2000/svg" viewBox="0 0 89.98 168.08" width="89.98" height="168.08">
  <path d="M74.82,141.85c5-2.34,11.75,2.36,11.28,7.89s-7.91,9-12.46,5.84-3.88-11.34,1.13-13.71"/>
  <path d="M78.31,141.07v-83"/>
  <path d="M79.77,50.83l-1-13.53"/>
  <path d="M79.5,45.21c6.74-5.09,9.66-15.83,4.63-22.62-1.33-1.8-3-3.31-4.3-5.13s-2.16-4.16-1.53-6.3c0,0-10.91,12.86-11.42,20.38-.43,6.35,5.53,12.36,11.88,12"/>
  <path d="M78.13.54a1.15,1.15,0,0,0-.52,1.78A1.14,1.14,0,0,0,79.43,2,1.14,1.14,0,0,0,78.33.5"/>
  <path d="M58.74,149.64c0-6.41-.06-19.81-.06-19.81H46.9"/>
  <path d="M25.88,115.34h15V133.7"/>
  <path d="M38.69,150.13v11.6"/>
  <path d="M13.29,149.66a9.66,9.66,0,0,1-6.17-1.37,4.37,4.37,0,0,1-1.72-5.14,3.38,3.38,0,0,1,4.94-1.71"/>
  <path d="M70.59,149.89H39.41s-17-.25-25.85-.25a8.38,8.38,0,0,0-5.07,1.66,4,4,0,0,0-1.3,4.49,3.14,3.14,0,0,0,4.4,1.51"/>
  <path d="M78.31,122.16c1-3.32,10.5-9.08,10.5-9.08a12.52,12.52,0,0,1,.21,6.24c-1.39,5.73-5,8.1-10.71,9.52"/>
  <path d="M78.31,98.6a23.39,23.39,0,0,0-9-6.81c-.05,5.6,4.56,12,9,15.39"/>
  <path d="M78.31,77.16c3-3.72,6.78-7.44,9.78-11.16a11.3,11.3,0,0,1-.25,11.29,10.48,10.48,0,0,1-9.53,5.22"/>
  <path d="M53.07,134.63a1.22,1.22,0,1,1-1.22-1.22A1.22,1.22,0,0,1,53.07,134.63ZM36.6,118.53a1.22,1.22,0,1,0,1.21,1.21A1.21,1.21,0,0,0,36.6,118.53Z"/>
  <path d="M2.93,150.13a1.22,1.22,0,1,1-1.21-1.22A1.21,1.21,0,0,1,2.93,150.13Z"/>
  <path d="M36.21,165.06l2.48,2.52,2.57-2.87s-1.45-1.65-2.71-3Z"/>
</svg>
