<svg xmlns="http://www.w3.org/2000/svg" viewBox="0 0 115.98 85.55"><defs><style>.cls-1{fill:none;stroke:#fff;stroke-linecap:round;stroke-linejoin:round;}</style></defs><title>earth3</title><g id="Layer_2" data-name="Layer 2"><g id="Layer_3" data-name="Layer 3"><path class="cls-1" d="M55.84,85.05V25.13"/><path class="cls-1" d="M55.93,27.5C54.49,20.4,47.48,13,40.38,11.62"/><path class="cls-1" d="M41.34,11.67c6.28.83,12-5,13.59-11.17"/><path class="cls-1" d="M54.93.5a12.5,12.5,0,0,0,15.34,9.85"/><path class="cls-1" d="M69.93,10.5c-6.61,1.63-14.79,10.24-14,17"/><path class="cls-1" d="M68.5,40.64c1.16-3.46,2.65-6.93,5.25-9.5s6.55-4,10-2.86C92,31.1,90.5,44.47,97.67,49.35c3.85,2.62,9.41,1.8,12.91-1.27s5.06-7.94,4.88-12.59c-.12-3.32-1.57-7.13-4.8-7.94-2.86-.71-5.81,1.45-7,4.15s-1.08,5.78-.94,8.72"/><path class="cls-1" d="M47.48,40.64c-1.17-3.46-2.65-6.93-5.25-9.5s-6.55-4-10-2.86C24,31.1,25.48,44.47,18.3,49.35,14.46,52,8.9,51.15,5.4,48.08S.34,40.14.51,35.49c.13-3.32,1.58-7.13,4.8-7.94,2.87-.71,5.82,1.45,7,4.15s1.08,5.78.94,8.72"/></g></g></svg>