      <svg xmlns="http://www.w3.org/2000/svg" viewBox="0 0 48.35 273.39" width="48.35" height="273.39">


<path d="M42,256.45c0-66.36,0-131.12,0-197.48,0,0-.77-14.46-5.48-20.8a19.57,19.57,0,0,0-15.19-7.71,20.53,20.53,0,0,0-15.57,7A17.18,17.18,0,0,0,1.46,50.58c.59,4.7,3.85,9.13,8.38,10.51S19.89,60.32,21.78,56a6.73,6.73,0,0,0-.68-6.9c-1.58-1.86-3.29-2.58-6.45-.48"/>
<path d="M.5.5A16.94,16.94,0,0,0,12.05,13.19"/>
<path d="M6.48,10.7C6.87,7.72,9,6.41,12,6.84s5.48,2.37,7.84,4.24l9.56,7.61h.07C23,20.93,10.55,24.07,4.66,20.49A7.57,7.57,0,0,1,.75,14.85C.6,12.48,4.1,10.61,6.48,10.7"/>
<path d="M42,256.45a6.77,6.77,0,0,0,5.82,5.32c-3,2.1-4.74,7.51-4.35,11.12-.34-3.62-4-7.36-7.38-8.82C38.58,262.65,41,259.09,42,256.45Z"/>
</svg>