<svg xmlns="http://www.w3.org/2000/svg" viewBox="0 0 72.62 210.47" width="72.62" height="210.47">

         <path d="M5.39,210V26.69"/>
         <path d="M5.51,125.16c8.25-1.71,16.21-3.43,24.47-5.14,8.94-1.86,18.25-3.89,25.35-9.64,7.36-6,11.36-15.31,12.75-24.69s-.82-28.86-.82-28.86C47.83,70.5,35.42,95.15,35.35,118.91"/>
         <path d="M59.72,63c-.17,6.76,3.44,14.25,8.55,18.68"/>
         <path d="M52.25,71.21c-2.33,4.55-2.21,10.63-.63,15.48S59.38,96.23,64,98.53"/>
         <path d="M40.81,91.24a16.73,16.73,0,0,0,2.69,12.55,17.17,17.17,0,0,0,11.07,6.8"/>
         <path d="M5.39,72.74H22.78V62.59s-.11-5,1.08-6.31a4.51,4.51,0,0,1,4.89-1.17,4.16,4.16,0,0,1,2.52,4.29,3.07,3.07,0,0,1-1.15,2,2.11,2.11,0,0,1-2.27.15"/>
         <path d="M13.84,72.74v11.6"/>
         <path d="M13.79,90a1.16,1.16,0,1,1-.34,2,1.22,1.22,0,0,1,.22-2"/>
         <path d="M24.14,150.54l.47,14s0,4.92-1.71,6.1a4.81,4.81,0,0,1-4.15.71,3.7,3.7,0,0,1-2.57-3.19A3,3,0,0,1,18.65,165"/>
         <path d="M5.69,150.05H30.92"/>
         <path d="M69.84,46c-1.48.24-2.71,2.48-1.76,3.64a2.43,2.43,0,0,0,3.82-.35C72.62,48,71.47,45.74,69.84,46Z"/>
         <path d="M5.63,20.79V15"/>
         <path d="M5.39,16.75A3.18,3.18,0,0,1,1.52,16a6.29,6.29,0,0,1-1-3.83A18.11,18.11,0,0,1,4.72.5S8.49,6.07,9.27,9.3a8.81,8.81,0,0,1-3.52,8.93"/>
         <path d="M37.59,149.32a1.56,1.56,0,1,0,.16,0"/>
         <path d="M35.35,118.91a10.73,10.73,0,0,1,10.33,7.2,40.76,40.76,0,0,1,1,4.8,8.35,8.35,0,0,0,2,4.39,3.87,3.87,0,0,0,4.48.86"/>
         <path d="M59.68,134.08a1,1,0,1,0,.07,0"/>

</svg>
