<svg xmlns="http://www.w3.org/2000/svg" viewBox="0 0 115.55 93.95" width="115.55" height="93.95">

         <path d="M105.36,76.66a6.29,6.29,0,0,1,2,3.35,3.77,3.77,0,0,1-1.18,3.59,2.71,2.71,0,0,1-3.59-.14,1.76,1.76,0,0,1-.48-1.26,1.17,1.17,0,0,1,.79-1"/>
         <path d="M105.7,76.64a4.85,4.85,0,0,0,8.49-2.27,2.83,2.83,0,0,0-1.42-3.2"/>
         <path d="M105.84,32.11a14.5,14.5,0,0,1,9.21-7s-.76,5.53-2.28,7.59a11.65,11.65,0,0,1-6.67,4.07"/>
         <path d="M105.84,19.75c-.62-2.91-1.53-4.13-4-5.74-2.71-1.74-7.39-1.63-7.39-1.63A13.3,13.3,0,0,0,97,21c1.81,2.46,5.92,4.25,8.88,5"/>
         <path d="M102.53,5.78a3.31,3.31,0,0,0,4.46,1,3.44,3.44,0,0,0,1-4.49C107.13.79,105,0,103.56.9A3.3,3.3,0,0,0,102.53,5.78Z"/>
         <path d="M105.78,55.9c-1.7-3.27-8.44-7.78-8.44-7.78a14.69,14.69,0,0,0,.69,10,16.64,16.64,0,0,0,7.65,7.43"/>
         <path d="M60.74,76.51v-8.7H47.55"/>
         <path d="M43.1,65.38a3.07,3.07,0,1,1-.13.09"/>
         <path d="M49.14,76.83V90.36H20.37"/>
         <path d="M14.55,88.17a3.39,3.39,0,0,0,.95,4.89,3.26,3.26,0,1,0,2.29-6A3,3,0,0,0,14.55,88.17Z"/>
         <path d="M.5,76.67c11.17,0,33.83-.16,33.83-.16h71.51V8.86"/>
         <path d="M.5,76.67c3.58-6,9.89-10.54,16.88-10.48A20.57,20.57,0,0,1,34.69,76.33"/>
         <path d="M6.86,69.7a10.35,10.35,0,0,1,6.55,6.54"/>
         <path d="M12.85,66.8c3.62,1.5,7.31,6.08,8.58,9.79"/>
         <path d="M21.08,66.59A14.22,14.22,0,0,1,27,76.3"/>
         <path d="M113.79,57.16a1.91,1.91,0,1,1-1.91-1.91A1.91,1.91,0,0,1,113.79,57.16Z"/>

</svg>
