<svg xmlns="http://www.w3.org/2000/svg" viewBox="0 0 359.04 39.34" width="359.04" height="39.34">
   <path class="fire-svg" d="M24.42,29.82H.5V5.9H24.42Z"/>
   <path class="fire-svg" d="M21.2,19.67H330"/>
   <path class="fire-svg" d="M118.65,11V30.54"/>
   <path class="fire-svg" d="M345.84,12a6,6,0,0,0,5.52-.75,5.51,5.51,0,0,0-1.7,1.18,1.87,1.87,0,0,0-.38,1.94c.41.82,1.47,1,2.37,1.2a12.13,12.13,0,0,1,6.89,4.25,7.58,7.58,0,0,0-8.59-.07,12.71,12.71,0,0,1,4,7.61c-2.26-1.66-5.4-1.17-8.13-.54s-5.77,1.32-8.21-.08a7.71,7.71,0,0,1-3-3.54,11.75,11.75,0,0,1-.85-7.34C334.31,13.42,335.75,8,345.84,12Z"/>
   <path class="fire-svg" d="M322.41,25.63V.5h0C320.06,2.87,315.2,8,315.2,8l6.88,6.89"/>
   <path class="fire-svg" d="M214.33,24.55h-32q9,6.89,17.5,14.26v0C204.71,34,209.47,29.41,214.33,24.55Z"/>
   <path class="fire-svg" d="M125.41,17V26"/>
   <path class="fire-svg" d="M70.16,4,77.09,11l-8.74,8.74"/>
   <path class="fire-svg" d="M61.78,19.52,70,11.29,65.82,7.1"/>
   <path class="fire-svg" d="M29.9,15.32H54.06"/>
   <path class="fire-svg" d="M79,26.11h30"/>
   <path class="fire-svg" d="M94.65,12.26V32.88"/>
   <path class="fire-svg" d="M88,26.22l6.66,6.66,6.6-6.57"/>
   <path class="fire-svg" d="M119.13,22.57h6.16"/>
   <path class="fire-svg" d="M164.05,4.67l11.54,11.62H152.31Z"/>
   <path class="fire-svg" d="M179.37,6.14v29.8"/>
   <path class="fire-svg" d="M179.86,11h7.73"/>
   <path class="fire-svg" d="M179.21,26.75H172"/>
   <path class="fire-svg" d="M270.38,20a9.55,9.55,0,1,1-9.54-9.55A9.54,9.54,0,0,1,270.38,20Z"/>
   <path class="fire-svg" d="M266.78,6.31a9.64,9.64,0,0,1,6.48,8.28"/>
   <path class="fire-svg" d="M272.31,10.24h33.34"/>
   <path class="fire-svg" d="M261.2,16.29v7.24"/>
   <path class="fire-svg" d="M137.73,27.88h-6.4v-6.4h6.4Z"/>
   <path class="fire-svg" d="M211.91,15.06H201.52V4.67h10.39Z"/>
   <path class="fire-svg" d="M15.64,10.57H4.93S5,16.31,5,19.35"/>
</svg>