<svg xmlns="http://www.w3.org/2000/svg" viewBox="0 0 111.05 41.48"><defs><style>.cls-1{fill:none;stroke:#fff;stroke-linecap:round;stroke-linejoin:round;}</style></defs><title>fire1</title><g id="Layer_2" data-name="Layer 2"><g id="Layer_4" data-name="Layer 4"><path class="cls-1" d="M31.07.5c-5.47.59-15,1.32-20,3.61S1.67,10.68.7,16.09c-.79,4.42.82,9,3.33,12.72A28.2,28.2,0,0,0,28.81,40.92a101.51,101.51,0,0,1-9.89-14,23.38,23.38,0,0,0,18.24,1.19C30.5,26.18,23.38,22.64,21.33,16S24.21,1.53,31.07.5"/><path class="cls-1" d="M33.29,17.8c2.31-3.13,6.58-4.24,10.47-3.94s7.56,1.76,11.31,2.81,7.82,1.69,11.48.37,6.66-5.16,5.85-9A6.35,6.35,0,0,0,59.85,9.42"/><path class="cls-1" d="M51.07,24c3.86,4.51,10.78,5.26,16.47,3.51S78,22,82.87,18.54s10.12-6.73,16-7.29c4.63-.44,10.06,1.53,11.36,6,1.25,4.26-1.85,8.66-5.54,11.13-2.9,1.94-6.71,3.18-9.86,1.67s-4.22-6.7-1.19-8.44"/></g></g></svg>