<svg xmlns="http://www.w3.org/2000/svg" viewBox="0 0 45.94 257.43" width="45.94" height="257.43">
   <path class="fire-svg" d="M21.52,17.73v239.2"/>
   <path class="fire-svg" d="M21.52,182.27H45.44"/>
   <path class="fire-svg" d="M45.44,182.27V150.38"/>
   <path class="fire-svg" d="M.5,88.77v20.29H21.31"/>
   <path class="fire-svg" d="M35.86,15.16,21.2.5,6.54,15.16Z"/>
   <path class="fire-svg" d="M26.43,33.24l-4.91,4.91-4.83-4.8"/>
   <path class="fire-svg" d="M9.84,45l5.64-5.64,6.12,6.12,5.64-5.59,6,6"/>
   <path class="fire-svg" d="M21.52,74.66,11.38,64.52,21.52,54.38,31.66,64.52Z"/>
   <path class="fire-svg" d="M3.4,94.53v10.18H13.47Z"/>
   <path class="fire-svg" d="M39.32,176.83v-12.4h0c-3.86,3.87-9,8.54-12.84,12.4H39.32"/>
   <path class="fire-svg" d="M34.57,149.65H25.22v11.44"/>
   <path class="fire-svg" d="M5.73,86.19H37"/>
   <path class="fire-svg" d="M30.54,155.45v8.22"/>
   <path class="fire-svg" d="M7.18,90.54l9.35,9.34"/>
   <path class="fire-svg" d="M21.46,230.09c-4.83-4.83-9.44-9.72-14.28-14.56"/>
   <path class="fire-svg" d="M21.36,219.72l-14-14"/>
   <path class="fire-svg" d="M7.18,215.37V193.79"/>
   <path class="fire-svg" d="M5.25,198.62h5.48"/>
   <path class="fire-svg" d="M21.52,206.19l9.34-9.34"/>
   <path class="fire-svg" d="M21.84,241.3h5.32v7.09H21.68"/>
   <path class="fire-svg" d="M21.54,143.35l-8.23,8.24,8,8"/>
   <path class="fire-svg" d="M21.76,117.44h5.72v10.47H22.16"/>
</svg>