<svg xmlns="http://www.w3.org/2000/svg" viewBox="0 0 111.05 41.48"><defs><style>.cls-1{fill:none;stroke:#fff;stroke-linecap:round;stroke-linejoin:round;}</style></defs><title>fire2</title><g id="Layer_2" data-name="Layer 2"><g id="Layer_4" data-name="Layer 4"><path class="cls-1" d="M80,.5c5.46.59,15,1.32,20,3.61s9.41,6.57,10.38,12c.79,4.42-.81,9-3.33,12.72A28.18,28.18,0,0,1,82.25,40.92a101.45,101.45,0,0,0,9.88-14,23.38,23.38,0,0,1-18.24,1.19C80.55,26.18,87.68,22.64,89.73,16S86.84,1.53,80,.5"/><path class="cls-1" d="M77.77,17.8c-2.32-3.13-6.59-4.24-10.47-3.94S59.73,15.62,56,16.67,48.16,18.36,44.5,17s-6.66-5.16-5.85-9A6.35,6.35,0,0,1,51.2,9.42"/><path class="cls-1" d="M60,24c-3.87,4.51-10.79,5.26-16.47,3.51S33,22,28.19,18.54s-10.13-6.73-16-7.29c-4.62-.44-10.06,1.53-11.36,6C-.47,21.5,2.64,25.9,6.33,28.37,9.23,30.31,13,31.55,16.19,30s4.21-6.7,1.18-8.44"/></g></g></svg>