<svg xmlns="http://www.w3.org/2000/svg" viewBox="0 0 62.44 320.57" width="62.44" height="320.57">
 <path class="fire-svg" d="M24.12,48H34.4"/>
 <path class="fire-svg" d="M34.4,48V59.61"/>
 <path class="fire-svg" d="M34.4,59.61H13.62V29.17H47.93v290.9"/>
 <path class="fire-svg" d="M42.37,84H61.94"/>
 <path class="fire-svg" d="M34.88,100.93H53.73"/>
 <path class="fire-svg" d="M54.69,165.2h-15v13.53H54.45"/>
 <path class="fire-svg" d="M40.07,172h7.86"/>
 <path class="fire-svg" d="M37.9,234.94,55,252l-2.58-2.59"/>
 <path class="fire-svg" d="M41.05,252l14.76-14.47"/>
 <path class="fire-svg" d="M35.12,237.68l5.56-5.56"/>
 <path class="fire-svg" d="M53.62,256.91l6.53-6.52"/>
 <path class="fire-svg" d="M45.51,38.19h7.41"/>
 <path class="fire-svg" d="M34.24,230.84.5,197.1"/>
 <path class="fire-svg" d="M.5,197H31.34"/>
 <path class="fire-svg" d="M31.39,196.91,17.81,183.32v13.6"/>
 <path class="fire-svg" d="M31.82,233.94l4.83-4.84"/>
 <path class="fire-svg" d="M13,23.14a17.08,17.08,0,0,1,34.16,0Z"/>
 <path class="fire-svg" d="M8,23.05H9.75"/>
 <path class="fire-svg" d="M51,23.05h1.93"/>
 <path class="fire-svg" d="M18,7.1,16.2,5.33"/>
 <path class="fire-svg" d="M42.45,7.1l1.93-1.93"/>
 <path class="fire-svg" d="M30.05,3.08V.5"/>
 <path class="fire-svg" d="M9.92,14.17l2.59,1.44"/>
 <path class="fire-svg" d="M48.59,15.52l1.58-1"/>
 <path class="fire-svg" d="M33.93,43.91H24.35V34.33h9.58Z"/>
 <path class="fire-svg" d="M24.64,34.55l8.67,8.66"/>
 <path class="fire-svg" d="M17.11,59.21v-2.9"/>
 <path class="fire-svg" d="M19.89,59.41V57.76"/>
 <path class="fire-svg" d="M22.14,59.45v-1"/>
 <path class="fire-svg" d="M44.14,96.68l-4.76-4.76h0l4.75-4.75C44.13,90.41,44.14,93.43,44.14,96.68Z"/>
 <path class="fire-svg" d="M61.65,292.7A13.73,13.73,0,1,1,47.93,279,13.72,13.72,0,0,1,61.65,292.7Z"/>
 <path class="fire-svg" d="M38.19,282.12,23,266.87"/>
 <path class="fire-svg" d="M13.62,257.53c0,1.94-.13,4.71-.13,6.65l6,6,6.88-6.89-5.91-5.92h0c-1.61,0-5.26.12-6.87.12"/>
 <path class="fire-svg" d="M15.38,202.41H31.16"/>
 <path class="fire-svg" d="M52.44,145.31l7.07-7.1-5.8-5.8,6.45-6.76-7.09-7.09"/>
 <path class="fire-svg" d="M42.42,132.27a4.59,4.59,0,1,1-4.59-4.59A4.6,4.6,0,0,1,42.42,132.27Z"/>
 <path class="fire-svg" d="M33.24,132.31h8.7"/>
 <path class="fire-svg" d="M37.83,128v8.33"/>
 <path class="fire-svg" d="M52.26,88.3v7.24"/>
 <path class="fire-svg" d="M37.83,124.12V118H47.7"/>
 <path class="fire-svg" d="M37.83,140.84V146H47.7"/>
</svg>