<svg xmlns="http://www.w3.org/2000/svg" viewBox="0 0 1881.93 977.66" width="1881.93" height="977.66">
   <path class="fire-svg" d="M16,104.27,34.33,85.91"/>
   <path class="fire-svg" d="M34.33,85.91,60.1,111.68"/>
   <path class="fire-svg" d="M16.1,114.28,34.39,96"/>
   <path class="fire-svg" d="M34.39,96l13.85,13.85"/>
   <path class="fire-svg" d="M21.28,34.16H31.43V23.53H20.8V45.44H31.43"/>
   <path class="fire-svg" d="M6.65,173.06v-.17a9.75,9.75,0,0,0-.17,2.85,3.33,3.33,0,0,0,1.38,2.4,4.79,4.79,0,0,0,2.28.54,11.6,11.6,0,0,0,2.7-.05,4.24,4.24,0,0,0,2.38-1.2,4.2,4.2,0,0,0,1-2.94c0-1.06-.23-104.25-.23-155.14"/>
   <path class="fire-svg" d="M20.67,161.89v-7.12l-9.18,9.06"/>
   <path class="fire-svg" d="M23.51,8.05A7.55,7.55,0,1,1,16,.5,7.55,7.55,0,0,1,23.51,8.05Z"/>
   <path class="fire-svg" d="M18.83,8.05A2.87,2.87,0,1,1,16,5.18,2.87,2.87,0,0,1,18.83,8.05Z"/>
   <path class="fire-svg" d="M11.13,19H21.28"/>
   <path class="fire-svg" d="M11.45,60.09V96.34"/>
   <path class="fire-svg" d="M11.5,140.19H4.37v-7.13H11.5Z"/>
   <path class="fire-svg" d="M15.72,128.16,4.93,117.44"/>
   <path class="fire-svg" d="M4.45,130.41v-7.57"/>
   <path class="fire-svg" d="M4.57,130.41h7.16"/>
   <path class="fire-svg" d="M11.72,130.41c-2.53-2.53-4.75-5-7.27-7.57"/>
   <path class="fire-svg" d="M7.83,142.73v6.76"/>
   <path class="fire-svg" d="M6.22,149.73H9.68"/>
   <path class="fire-svg" d="M8.88,8.05H23.05"/>
   <path class="fire-svg" d="M16,.8V15.6"/>
   <path class="fire-svg" d="M11.39,60,.51,70.91v0l6.77,6.76-5.8,6.12h0l10,10"/>
   <path class="fire-svg" d="M16.61,64.77H30.46"/>
   <path class="fire-svg" d="M16.61,71.53H26"/>
   <path class="fire-svg" d="M1875.63,787.37l-8.37,8.37,14.17.19V975.65H1664v0l-12.46-12.45-14,13.94L1626,965.57h-17.18"/>
</svg>