<svg xmlns="http://www.w3.org/2000/svg" viewBox="0 0 202.66 138.34">
   <path class="fire-svg" d="M170.89,41.39h24.55"/>
   <path class="fire-svg" d="M175.65,35.89v11"/>
   <path class="fire-svg" d="M164.06,41.39l4.17-4.17v8.34Z"/>
   <path class="fire-svg" d="M184.28,125.76l10.41,10.42"/>
   <path class="fire-svg" d="M189.34,117.58,176,130.91"/>
   <path class="fire-svg" d="M176,126.67l8.77-8.77H176Z"/>
   <path class="fire-svg" d="M186.36,121.15l3,3"/>
   <path class="fire-svg" d="M179.77,127.35l3.47,3.47"/>
   <path class="fire-svg" d="M29.85,128.62v9.22"/>
   <path class="fire-svg" d="M11.4,120.58H4.11v8.78"/>
   <path class="fire-svg" d="M41.15,118.36l15.19,15.17"/>
   <path class="fire-svg" d="M54.7,121.62,64.05,131"/>
   <path class="fire-svg" d="M85.36,117.61v8.63H95.77"/>
   <path class="fire-svg" d="M133.73,125.76H146l0,0-6.22-6.22C137.85,121.49,135.72,123.78,133.73,125.76Z"/>
   <path class="fire-svg" d="M172.94,97.59,185,85.51v24h-.17l-11.91-11.9"/>
   <path class="fire-svg" d="M41.91,128l-6.32-6.33H70.18"/>
   <path class="fire-svg" d="M24.59,123.85l-4.21,4.21-4.21-4.21,4.21-4.2Z"/>
   <path class="fire-svg" d="M103.81,120.43H93.69v-5.35"/>
   <path class="fire-svg" d="M117.79,117.75h-14v7.89h9.72"/>
   <path class="fire-svg" d="M183.86,77.43h18.3"/>
   <path class="fire-svg" d="M194.57,71.63v31.24"/>
   <path class="fire-svg" d="M183.39,30a6.48,6.48,0,0,0,1.19-7.3c-.81-1.63-2.27-2.82-3.44-4.21s-2.1-3.27-1.52-5a9.91,9.91,0,0,0-1.77,5.67,21.11,21.11,0,0,1-4.39-6c-1.47,1.31.66,4-.41,5.64s-3.83.43-5.47,1.5c-1.4.92-1.3,3-.65,4.59A11,11,0,0,0,177,31.52S181.53,31.83,183.39,30Z"/>
   <path class="fire-svg" d="M185.39.5l-5.8,5.8,9.82.14V131H38.75v0l-8.63-8.63L20.44,132l-8-8H.5"/>
   <path class="fire-svg" d="M185.05,12.26l8,8"/>
   <path class="fire-svg" d="M184.35,61.58h-8.7v-8.7h8.7Z"/>
   <path class="fire-svg" d="M195.44,28.3h-3.32V25h3.32Z"/>
   <path class="fire-svg" d="M148.34,117.89l13,13.06"/>
   <path class="fire-svg" d="M154.55,118.16l9.93,9.94"/>
   <path class="fire-svg" d="M175.76,117.91H143.28"/>
   <path class="fire-svg" d="M194.69,136.27a11.1,11.1,0,0,0-4.06-1.06c1-1,3-3,3-3A37.56,37.56,0,0,0,194.69,136.27Z"/>
   <path class="fire-svg" d="M175.67,57.94l5.09-5"/>
   <path class="fire-svg" d="M177.62,61.58l6.6-6.6"/>
</svg>