<svg xmlns="http://www.w3.org/2000/svg" viewBox="0 0 105.48 87.93" width="105.48" height="87.93">
    <path class="fire-svg" d="M55,87.43V30.93l50,50v.12H.5V81l50-50v56.5"/><path class="fire-svg" d="M51,24.92a6.21,6.21,0,0,0-2.89-5.4,20.27,20.27,0,0,0-5.9-2.44,15.62,15.62,0,0,1-5.78-2.68A5.46,5.46,0,0,1,34.28,10a3.29,3.29,0,0,1,3.38-3.08c1.69.22,2.71,2.69,1.43,3.81"/><path class="fire-svg" d="M56.34,24.5a5.17,5.17,0,0,1,5.52-6.82c1.29.16,2.52.8,3.81.73,2.35-.12,3.89-2.4,5-4.44a16.77,16.77,0,0,0,2.18-5.1,5.78,5.78,0,0,0-1.36-5.18c-1.34-1.28-3.77-1.44-5,0"/><path class="fire-svg" d="M53.66,16.78c-1.61-2.32,1.3-5.57.32-8.21A5.46,5.46,0,0,0,51.4,6,8.49,8.49,0,0,1,48.52,3.8,2.42,2.42,0,0,1,48.81.5"/><path class="fire-svg" d="M58.08,73.22v4.83h5.16"/><path class="fire-svg" d="M62.11,73.7l7.41-7.41"/><path class="fire-svg" d="M47,73.22v4.83H41.82"/><path class="fire-svg" d="M43,73.7l-7.41-7.41"/><path class="fire-svg" d="M46.29,35.65h4"/><path class="fire-svg" d="M55.47,35.65h3.74"/><path class="fire-svg" d="M32.18,59.16,19.26,72.09"/><path class="fire-svg" d="M73.28,58.86,86.82,72.39"/><path class="fire-svg" d="M50.57,54h4.17"/><path class="fire-svg" d="M50.63,56.06h4"/><path class="fire-svg" d="M50.69,51.29h3.87"/>
</svg>