<svg xmlns="http://www.w3.org/2000/svg" viewBox="0 0 69.7 65.55" width="69.7" height="65.55">

            <path class="water-svg" d="M24.22,53.88A12.82,12.82,0,0,0,19,56.43a5.15,5.15,0,0,0-1.66,5.33,5.25,5.25,0,0,0,3.84,3.05,15.52,15.52,0,0,0,5.09,0L51,62.36c1.89-.19,4.21-.72,4.69-2.57a3.23,3.23,0,0,0-2-3.47A17.09,17.09,0,0,0,48,55.11"/>
            <path class="water-svg" d="M37.8,60.08C24.62,54.48,10.62,48.2,3.07,36,1.24,33.1-.17,29.54.83,26.23s5.42-5.57,8.11-3.4c.35-4.89.82-10.08,3.77-14s9.35-5.62,12.78-2.11A9.64,9.64,0,0,1,35,.52a9.66,9.66,0,0,1,8.5,7.54,10.78,10.78,0,0,1,11.83-.65A10.76,10.76,0,0,1,60.23,18.2,14,14,0,0,1,69,33.58c-.83,4.16-3.54,7.68-6.43,10.78C55.71,51.69,46.91,55.92,37.8,60.08"/>
            <path class="water-svg" d="M13.9,24.45q9.3,11.13,17.75,22.93"/>
            <path class="water-svg" d="M26.26,10.84q5.13,16.41,8.85,33.22"/>
            <path class="water-svg" d="M45,12.14A93.16,93.16,0,0,1,37.7,43"/>
            <path class="water-svg" d="M42.86,50.11A58.91,58.91,0,0,1,60.15,25.72"/>

</svg>
