<svg xmlns="http://www.w3.org/2000/svg" viewBox="0 0 384.22 104.13" width="384.22" height="104.13">
    <path class="water-svg" d="M344.09,38a66,66,0,0,1-3.41,17.83c-1.35,4-3.09,7.85-4.05,11.95s-1.09,8.55.71,12.35,5.88,6.71,10.06,6.2c4.81-.6,8.18-5.45,8.75-10.26s-1-9.6-2.57-14.19C350.93,54,344.09,38,344.09,38Z"/>
    <path class="water-svg" d="M50.45,50.32l-14-14c5-5,9-9.5,14-14.49,0,24.16.11,48.1.11,72.27a13.31,13.31,0,0,0,11-10.43C59.79,88,63.1,93.52,67.73,94s9.07-4.2,8.29-8.8a6.7,6.7,0,1,0,13.33.56A8.63,8.63,0,1,0,106.51,85a9.51,9.51,0,0,0,18.82,2.17,7.63,7.63,0,0,0,15.19-.12c-.37,5.13,6.3,11.91,10.15,8.5,2.88-2.54,2.79-7.14,4.18-10.72A11.54,11.54,0,0,0,177.13,87a9.14,9.14,0,0,0,17.33-1,6.6,6.6,0,1,0,13.12-1.06,8.87,8.87,0,0,0,17.65.82,10.21,10.21,0,0,0,20.22,1.69,8.39,8.39,0,0,0,16.76-.85,8.7,8.7,0,1,0,17.22-2.46,9.59,9.59,0,0,0,18.73.57c-3,3.89,1.55,10,6.44,9.8S313.27,89.9,315,85.3a6.53,6.53,0,1,0,12.85,1.79,24.7,24.7,0,0,0,17,9.93"/>
    <path class="water-svg" d="M44.65,71.1H55.28"/>
    <path class="water-svg" d="M50.56,94.08A87.25,87.25,0,0,0,36.77,78.47c-3.1-2.71-6.58-5.28-10.65-5.93A13,13,0,0,0,13.65,78a9.2,9.2,0,0,0-1.59,7,5.93,5.93,0,0,0,5.14,4.66c2.47.12,4.93-2.17,4.58-4.63"/>
    <path class="water-svg" d="M30.94,73.87a161,161,0,0,0-.52-18.72c-.45-5.89-1.91-11.91-5.51-16.59S15.2,30.81,9.42,32.05-.91,39.65.9,45.28a7.49,7.49,0,0,0,6,5.27c2.8.31,5.79-1.8,6-4.61a2.88,2.88,0,0,0-1.39-2.88c-1-.49-2.53.29-2.41,1.42"/>
    <path class="water-svg" d="M343.76,26a3.63,3.63,0,0,0,2.7-3.36,10,10,0,0,0-1-4.49c-1-2.58-3-5.61-5.7-5-1.72.4-2.73,2.17-3.37,3.81a31.2,31.2,0,0,0-2.09,13.82c.33,4.38,1.59,8.69,1.53,13.09S334,53.05,330,54.94c-4.6,2.18-10.85-1.22-11.52-6.27a6.16,6.16,0,0,1,1.27-4.84,4.18,4.18,0,0,1,4.67-1.24,3.2,3.2,0,0,1,1.6,4.28"/>
    <path class="water-svg" d="M352.06,97h21.18"/>
    <path class="water-svg" d="M383.72,96.87c-2.43,3.14-3.12,3.43-5.46,6.76A69.15,69.15,0,0,0,372.8,97l4.95-7.89C380.24,92.44,383.72,96.87,383.72,96.87Z"/>
    <path class="water-svg" d="M346.48,6.78A6.29,6.29,0,1,1,340.2.5,6.28,6.28,0,0,1,346.48,6.78Z"/>
    <path class="water-svg" d="M379.85,96.34a1.59,1.59,0,1,1-1.59-1.51A1.55,1.55,0,0,1,379.85,96.34ZM348.57,93.8a3.49,3.49,0,1,0,3.49,3.49A3.49,3.49,0,0,0,348.57,93.8Z"/>
</svg>
