<svg xmlns="http://www.w3.org/2000/svg" viewBox="0 0 83.73 353.47" width="83.73" height="353.47">

            <path class="water-svg" d="M36,61.35A100.31,100.31,0,0,1,14.94,50.84c-6.15-4-12.2-9.28-14-16.43A17.65,17.65,0,0,1,5,18.59a17.65,17.65,0,0,1,15.39-5.45,14,14,0,0,1,10.2,6.64c2,3.69,1.65,8.73-1.36,11.66S20.64,34.35,18.06,31"/>
            <path class="water-svg" d="M58,57.82a136.89,136.89,0,0,1-11.34-26c-1.59-5-2.92-10.19-2.59-15.42S46.62,5.78,50.92,2.78A14,14,0,0,1,69,5.14a14,14,0,0,1-.68,18.19c-2.76,2.8-7.1,4.3-10.78,2.9s-5.92-6.2-4-9.61"/>
            <path class="water-svg" d="M23.79,21.48a3.06,3.06,0,1,1-3.06,3.06A3.06,3.06,0,0,1,23.79,21.48ZM59.23,17a2.9,2.9,0,1,0,2.9-2.9A2.9,2.9,0,0,0,59.23,17Z"/>
            <path class="water-svg" d="M82.9,353c-6.23-3.2-10.64-11.35-11.25-18.34s.91-13.95,1.82-20.9,1.16-14.32-1.82-20.66c-2.55-5.43-7.18-9.53-11-14.13s-7.07-10.46-5.94-16.35c1.53-7.91,10-12.36,14-19.39,4.48-8,2.3-18.36-3-25.86s-13-12.75-20.67-17.81"/>
            <path class="water-svg" d="M62.05,212.87c-3.47-3.57-4.21-9.3-2.72-13.81s4.41-8.46,5.93-13c2.66-7.82,2.25-15.2-3.46-21.17"/>
            <path class="water-svg" d="M82.9,130.37H49.72"/>
            <path class="water-svg" d="M82.9,114.26H67.44"/>
            <path class="water-svg" d="M37.87,190.7a7.14,7.14,0,1,1-7.14,7.14A7.14,7.14,0,0,1,37.87,190.7Zm11.85-33.76a8.86,8.86,0,1,0,8.86-8.86A8.86,8.86,0,0,0,49.72,156.94Z"/>
            <path class="water-svg" d="M49.94,130.37c-2.79-2.8-6-5.78-8.83-8.57,0,4,.18,13.15.18,17.12C43.65,136.56,47.58,132.73,49.94,130.37Z"/>
            <path class="water-svg" d="M61.24,108.09c2.36,2.36,6.2,6.17,6.2,6.17l-6.2,6.25.7-.8-.7.8Z"/>

            <path class="water-svg" d="M82.9,353V111.27c0-2.54,2.12-30.66-4.35-39.86A34.61,34.61,0,0,0,49.56,57c-8.58.3-18.14,5.55-18.8,14.11-.47,6.22,4,11.9,9.45,15,3.9,2.24,8.56,3.5,12.94,2.47s8.27-4.73,8.6-9.21S58,70.35,53.53,71"/>

</svg>
