<svg xmlns="http://www.w3.org/2000/svg" viewBox="0 0 78.06 249.28">
    
    <path class="water-svg" d="M32.31,248.78c5.52-8.6,11.08-17.29,14.58-26.89s4.79-20.33,1.63-30c-5.28-16.2-22.11-27.73-23.74-44.69-1.39-14.45,8.83-27.35,11.57-41.6,2.21-11.55-.66-23.61-5.82-34.18S18,51.49,10.72,42.27"/>
    <path class="water-svg" d="M32.31,248.78c-16-30.89,2.37-46.91,13.08-67.24S66.67,137.92,59.65,116c-3-9.41-9.24-18.57-7.38-28.27,1.78-9.27,10.33-15.45,18.2-20.66"/>
    <path class="water-svg" d="M32.62,248.78c8.9-8.25,17.9-16.63,24.39-26.89s10.27-22.8,7.69-34.66c-2.38-11-9.82-20.1-17.82-28s-16.84-15-23.33-24.14-10.38-21-6.9-31.67"/>
    <path class="water-svg" d="M32.31,248.78C22.71,246.61,15.77,233.72,14,224s-.15-19.63.06-29.47-1.29-20.44-8-27.67"/>
    <path class="water-svg" d="M34.33,80.8c-3-8.27-1.69-23.47,3.22-30.77C40.23,46,44,42.72,46,38.35c2.39-5.17,2.09-11.27.36-16.7S41.55,11.33,38.51,6.5"/>
    <path class="water-svg" d="M77.56,64.56A3.55,3.55,0,1,1,74,61,3.55,3.55,0,0,1,77.56,64.56Z"/>
    <path class="water-svg" d="M21.35,99.92a3.54,3.54,0,1,1-3.54-3.55A3.53,3.53,0,0,1,21.35,99.92Z"/>
    <path class="water-svg" d="M39,4A3.54,3.54,0,1,1,35.41.5,3.54,3.54,0,0,1,39,4Z"/><path class="water-svg" d="M12.18,38.72a3.55,3.55,0,1,1-3.55-3.54A3.55,3.55,0,0,1,12.18,38.72Z"/>
    <path class="water-svg" d="M7.59,164A3.55,3.55,0,1,1,4,160.5,3.55,3.55,0,0,1,7.59,164Z"/>
    <path class="water-svg" d="M42.3,33.42A28,28,0,0,0,53.91,24.7"/>
    <path class="water-svg" d="M53.88,146l8.21,9.66"/>
    <path class="water-svg" d="M8.06,206.49a35.18,35.18,0,0,0,10.5-10.78"/>
    <path class="water-svg" d="M45.25,204.47a52,52,0,0,0,5.75-14"/>
    <path class="water-svg" d="M32.06,99.65a21.94,21.94,0,0,0,13.13,6.63"/>
</svg>