<svg xmlns="http://www.w3.org/2000/svg" viewBox="0 0 66.5 182.27" width="66.5" height="182.27">
    <path class="water-svg" d="M24.9,1.56C19.13-2,11.34,4,10.49,10.76s2.7,13.12,6,19S23,42.43,21.42,49C19.47,57.34,10.34,63.45,11,72,11.4,77.8,16.34,82.12,19.53,87c8.91,13.73,4,31.86-1.49,47.28s-11.16,33.06-3.38,47.46"/>
    <path class="water-svg" d="M22,45.22,48.57,14"/>
    <path class="water-svg" d="M48.57,14V32.87"/>
    <path class="water-svg" d="M53.76,15.07V31.82"/>
    <path class="water-svg" d="M53.76,15.07,66,27.31"/>
    <path class="water-svg" d="M53.76,31.82,66,19.58"/>
    <path class="water-svg" d="M37.49,27.3V45"/>
    <path class="water-svg" d="M45.83,86.49a29.5,29.5,0,0,0,.9-10.77,14.13,14.13,0,0,0-5-9.35c-2.87-2.22-11.24-2-14.46-.23S22,72,23.23,75.49c1.11,3.11,4.29,4.87,6.7,7.12,6.24,5.84,7.15,16.5,2,23.3C31.91,105.91,44,94.28,45.83,86.49Z"/><path class="water-svg" d="M25.6,144.44c-4.32,6-6.9,14.71-7.21,22.06a17.26,17.26,0,0,0,1,7.67c1,2.39,3.34,4.4,5.94,4.35,2.94,0,5.34-2.74,5.88-5.63s-.37-5.86-1.63-8.51-2.88-5.16-3.85-7.93a18.78,18.78,0,0,1-.09-12"/>
    <path class="water-svg" d="M47.42,1.92a12.46,12.46,0,0,0,4.72,4.19,23.65,23.65,0,0,0-3.46,5,10.33,10.33,0,0,0-4.59-3.64S47,4,47.42,1.92Z"/>
    <path class="water-svg" d="M15,122.44H27.21"/>
    <path class="water-svg" d="M4.34,117.61H19.16"/>
    <path class="water-svg" d="M25,129.85H39.78"/>
    <path class="water-svg" d="M13.07,63.88c.77-4.26-.42-10.23-3.43-13.34-2.35-2.42-5.8-4.33-6.26-7.68"/>
    <path class="water-svg" d="M10.11,117.21a19.33,19.33,0,0,0,2.2-5.76,6.57,6.57,0,0,0-1.62-5.74c-2-1.88-5.62-2.21-6.37-4.85"/><path class="water-svg" d="M33.74,130.53a10.21,10.21,0,0,0,1.08,10.05c1.87,2.55,4.81,4,7.21,6.12S46.38,152,45.26,155"/>
    <path class="water-svg" d="M26.14,12.4a4.63,4.63,0,1,1-4.62-4.63A4.62,4.62,0,0,1,26.14,12.4ZM4.32,93.48A3.5,3.5,0,1,0,7.82,97,3.49,3.49,0,0,0,4.32,93.48ZM3.38,37.11A2.88,2.88,0,1,0,6.25,40,2.88,2.88,0,0,0,3.38,37.11ZM49.85,159.93a4.27,4.27,0,1,0-4.27,4.27A4.27,4.27,0,0,0,49.85,159.93Z"/>
</svg>